<svg width="436" height="261" viewBox="0 0 436 261" fill="none" xmlns="http://www.w3.org/2000/svg">
<g id="illus">
<path id="y3" d="M272 242C272 231.507 280.507 223 291 223H435V261H291C280.507 261 272 252.493 272 242V242Z" fill="#F0C808"/>
<path id="r1" d="M76 177C76 164.297 86.2975 154 99 154L435 154V200L99 200C86.2974 200 76 189.703 76 177V177Z" fill="#DD1C1A"/>
<path id="y2" d="M170.054 101.459C170.033 88.6641 180.389 78.2745 193.184 78.2534L435.308 77.8545L435.385 124.19L193.26 124.589C180.465 124.61 170.075 114.254 170.054 101.459V101.459Z" fill="#F0C808"/>
<path id="y1" d="M0.000261784 24.107C-1.76306e-05 10.7981 10.7887 0.00890969 24.0976 0.00863028L435.167 3.23362e-08L435.168 48.1957L24.0986 48.2043C10.7897 48.2046 0.000541198 37.4158 0.000261784 24.107V24.107Z" fill="#F0C808"/>
</g>
</svg>
